G04 #@! TF.GenerationSoftware,KiCad,Pcbnew,(5.1.5)-3*
G04 #@! TF.CreationDate,2020-06-22T20:27:24+02:00*
G04 #@! TF.ProjectId,C64 XUM1541,43363420-5855-44d3-9135-34312e6b6963,rev?*
G04 #@! TF.SameCoordinates,Original*
G04 #@! TF.FileFunction,Copper,L1,Top*
G04 #@! TF.FilePolarity,Positive*
%FSLAX46Y46*%
G04 Gerber Fmt 4.6, Leading zero omitted, Abs format (unit mm)*
G04 Created by KiCad (PCBNEW (5.1.5)-3) date 2020-06-22 20:27:24*
%MOMM*%
%LPD*%
G04 APERTURE LIST*
%ADD10C,1.524000*%
%ADD11O,2.000000X1.524000*%
%ADD12O,1.524000X2.000000*%
%ADD13C,1.800000*%
%ADD14R,1.800000X1.800000*%
%ADD15O,1.600000X1.600000*%
%ADD16C,1.600000*%
%ADD17C,2.100000*%
%ADD18C,1.750000*%
%ADD19O,1.700000X1.700000*%
%ADD20R,1.700000X1.700000*%
%ADD21C,0.600000*%
%ADD22C,0.250000*%
G04 APERTURE END LIST*
D10*
X109220000Y-80010000D03*
X119380000Y-80010000D03*
X106680000Y-80010000D03*
X111760000Y-80010000D03*
X114300000Y-80010000D03*
X104140000Y-80010000D03*
X116840000Y-80010000D03*
X101600000Y-80010000D03*
X99060000Y-80010000D03*
X96520000Y-80010000D03*
X93980000Y-80010000D03*
X121920000Y-80010000D03*
X121920000Y-77470000D03*
X121920000Y-95250000D03*
X119380000Y-95250000D03*
X116840000Y-95250000D03*
X114300000Y-95250000D03*
X111760000Y-95250000D03*
X109220000Y-95250000D03*
X106680000Y-95250000D03*
X104140000Y-95250000D03*
X101600000Y-95250000D03*
X99060000Y-95250000D03*
X96520000Y-95250000D03*
X93980000Y-95250000D03*
X93980000Y-77470000D03*
X96520000Y-77470000D03*
X99060000Y-77470000D03*
X101600000Y-77470000D03*
X104140000Y-77470000D03*
X106680000Y-77470000D03*
X109220000Y-77470000D03*
X111760000Y-77470000D03*
X114300000Y-77470000D03*
X116840000Y-77470000D03*
X119380000Y-77470000D03*
D11*
X76795000Y-81360000D03*
X76795000Y-91360000D03*
X74295000Y-78860000D03*
X74295000Y-93860000D03*
D12*
X64295000Y-81360000D03*
X64295000Y-91360000D03*
D11*
X74295000Y-86360000D03*
D12*
X79295000Y-86360000D03*
D13*
X104140000Y-102235000D03*
D14*
X101600000Y-102235000D03*
D15*
X88900000Y-92710000D03*
D16*
X88900000Y-82550000D03*
D17*
X118090000Y-100380000D03*
D18*
X116840000Y-102870000D03*
X112340000Y-102870000D03*
D17*
X111080000Y-100380000D03*
D19*
X83185000Y-69850000D03*
X83185000Y-72390000D03*
X80645000Y-69850000D03*
X80645000Y-72390000D03*
X78105000Y-69850000D03*
X78105000Y-72390000D03*
X75565000Y-69850000D03*
X75565000Y-72390000D03*
X73025000Y-69850000D03*
X73025000Y-72390000D03*
X70485000Y-69850000D03*
X70485000Y-72390000D03*
X67945000Y-69850000D03*
X67945000Y-72390000D03*
X65405000Y-69850000D03*
D20*
X65405000Y-72390000D03*
D21*
X110490000Y-81915000D03*
X110490000Y-73660000D03*
X107950000Y-81915000D03*
X107950000Y-73660000D03*
X105410000Y-81915000D03*
X105410000Y-73660000D03*
X102870000Y-81915000D03*
X102870000Y-73660000D03*
D22*
X119380000Y-77470000D02*
X119380000Y-80010000D01*
X111760000Y-77470000D02*
X111760000Y-80010000D01*
X109220000Y-80010000D02*
X109220000Y-77470000D01*
X106680000Y-77470000D02*
X106680000Y-80010000D01*
X104140000Y-80010000D02*
X104140000Y-77470000D01*
X101600000Y-77470000D02*
X101600000Y-80010000D01*
X99060000Y-80010000D02*
X99060000Y-77470000D01*
X96520000Y-77470000D02*
X96520000Y-80010000D01*
X73045000Y-86360000D02*
X74295000Y-86360000D01*
X72390000Y-85705000D02*
X73045000Y-86360000D01*
X92075000Y-81280000D02*
X92075000Y-78740000D01*
X75830022Y-77100022D02*
X73394978Y-77100022D01*
X92710000Y-81915000D02*
X92075000Y-81280000D01*
X96520000Y-80010000D02*
X96520000Y-81280000D01*
X91440000Y-78105000D02*
X76835000Y-78105000D01*
X95885000Y-81915000D02*
X92710000Y-81915000D01*
X96520000Y-81280000D02*
X95885000Y-81915000D01*
X92075000Y-78740000D02*
X91440000Y-78105000D01*
X76835000Y-78105000D02*
X75830022Y-77100022D01*
X73394978Y-77100022D02*
X72390000Y-78105000D01*
X72390000Y-78105000D02*
X72390000Y-85705000D01*
X93980000Y-80010000D02*
X93980000Y-77470000D01*
X73208579Y-76650011D02*
X76650011Y-76650011D01*
X71895000Y-77963590D02*
X73208579Y-76650011D01*
X71895000Y-92710000D02*
X71895000Y-77963590D01*
X74295000Y-93860000D02*
X73045000Y-93860000D01*
X73045000Y-93860000D02*
X71895000Y-92710000D01*
X93980000Y-77470000D02*
X77470000Y-77470000D01*
X76650011Y-76650011D02*
X77470000Y-77470000D01*
X79295000Y-89455000D02*
X79295000Y-86360000D01*
X93980000Y-95250000D02*
X93980000Y-92075000D01*
X80645000Y-90805000D02*
X79295000Y-89455000D01*
X92710000Y-90805000D02*
X80645000Y-90805000D01*
X93980000Y-92075000D02*
X92710000Y-90805000D01*
X95250000Y-84455000D02*
X96520000Y-85725000D01*
X96520000Y-85725000D02*
X96520000Y-95250000D01*
X74295000Y-78860000D02*
X74295000Y-83820000D01*
X74295000Y-83820000D02*
X74930000Y-84455000D01*
X95250000Y-84455000D02*
X74930000Y-84455000D01*
X99060000Y-94172370D02*
X99060000Y-95250000D01*
X76795000Y-83145000D02*
X77470000Y-83820000D01*
X76795000Y-81360000D02*
X76795000Y-83145000D01*
X97790000Y-83820000D02*
X99060000Y-85090000D01*
X77470000Y-83820000D02*
X97790000Y-83820000D01*
X99060000Y-85090000D02*
X99060000Y-94172370D01*
X96520000Y-82550000D02*
X88900000Y-82550000D01*
X113665000Y-81280000D02*
X97790000Y-81280000D01*
X114300000Y-81915000D02*
X113665000Y-81280000D01*
X97790000Y-81280000D02*
X96520000Y-82550000D01*
X114300000Y-95250000D02*
X114300000Y-81915000D01*
X116205000Y-95885000D02*
X116840000Y-95250000D01*
X116840000Y-102870000D02*
X116205000Y-102235000D01*
X116205000Y-102235000D02*
X116205000Y-95885000D01*
X121920000Y-80010000D02*
X121920000Y-77470000D01*
X104140000Y-100330000D02*
X104140000Y-102235000D01*
X103505000Y-99695000D02*
X104140000Y-100330000D01*
X88900000Y-92710000D02*
X88900000Y-99060000D01*
X89535000Y-99695000D02*
X103505000Y-99695000D01*
X88900000Y-99060000D02*
X89535000Y-99695000D01*
X66040000Y-76200000D02*
X65405000Y-75565000D01*
X109220000Y-77470000D02*
X107950000Y-76200000D01*
X65405000Y-75565000D02*
X65405000Y-72390000D01*
X107950000Y-76200000D02*
X66040000Y-76200000D01*
X70485000Y-74295000D02*
X70485000Y-72390000D01*
X118745000Y-74930000D02*
X71120000Y-74930000D01*
X119380000Y-75565000D02*
X118745000Y-74930000D01*
X71120000Y-74930000D02*
X70485000Y-74295000D01*
X119380000Y-77470000D02*
X119380000Y-75565000D01*
X111760000Y-76200000D02*
X111760000Y-77470000D01*
X68580000Y-75565000D02*
X111125000Y-75565000D01*
X67945000Y-72390000D02*
X67945000Y-74930000D01*
X111125000Y-75565000D02*
X111760000Y-76200000D01*
X67945000Y-74930000D02*
X68580000Y-75565000D01*
X121920000Y-74930000D02*
X121920000Y-77470000D01*
X73025000Y-72390000D02*
X74930000Y-74295000D01*
X121285000Y-74295000D02*
X121920000Y-74930000D01*
X74930000Y-74295000D02*
X121285000Y-74295000D01*
X110490000Y-94615000D02*
X110490000Y-81915000D01*
X111760000Y-95250000D02*
X111125000Y-95250000D01*
X111125000Y-95250000D02*
X110490000Y-94615000D01*
X76200000Y-72390000D02*
X75565000Y-72390000D01*
X76835000Y-71755000D02*
X76200000Y-72390000D01*
X110490000Y-67945000D02*
X109855000Y-67310000D01*
X110490000Y-73660000D02*
X110490000Y-67945000D01*
X77470000Y-67310000D02*
X76835000Y-67945000D01*
X109855000Y-67310000D02*
X77470000Y-67310000D01*
X76835000Y-67945000D02*
X76835000Y-71755000D01*
X109220000Y-95250000D02*
X108585000Y-95250000D01*
X107950000Y-94615000D02*
X107950000Y-81915000D01*
X108585000Y-95250000D02*
X107950000Y-94615000D01*
X78740000Y-72390000D02*
X78105000Y-72390000D01*
X79375000Y-71755000D02*
X78740000Y-72390000D01*
X79375000Y-68580000D02*
X79375000Y-71755000D01*
X107950000Y-73660000D02*
X107950000Y-68580000D01*
X107315000Y-67945000D02*
X80010000Y-67945000D01*
X107950000Y-68580000D02*
X107315000Y-67945000D01*
X80010000Y-67945000D02*
X79375000Y-68580000D01*
X81280000Y-71120000D02*
X80645000Y-71755000D01*
X104775000Y-71120000D02*
X81280000Y-71120000D01*
X105410000Y-73660000D02*
X105410000Y-71755000D01*
X80645000Y-71755000D02*
X80645000Y-72390000D01*
X105410000Y-71755000D02*
X104775000Y-71120000D01*
X106680000Y-95250000D02*
X106045000Y-95250000D01*
X105410000Y-94615000D02*
X105410000Y-81915000D01*
X106045000Y-95250000D02*
X105410000Y-94615000D01*
X102870000Y-94615000D02*
X102870000Y-81915000D01*
X104140000Y-95250000D02*
X103505000Y-95250000D01*
X103505000Y-95250000D02*
X102870000Y-94615000D01*
X84387081Y-72390000D02*
X83185000Y-72390000D01*
X85022081Y-71755000D02*
X84387081Y-72390000D01*
X102235000Y-71755000D02*
X85022081Y-71755000D01*
X102870000Y-73660000D02*
X102870000Y-72390000D01*
X102870000Y-72390000D02*
X102235000Y-71755000D01*
M02*
