M48
; DRILL file {KiCad (5.1.5)-3} date 08/06/2020 19:46:30
; FORMAT={2:4/ absolute / inch / suppress leading zeros}
; #@! TF.CreationDate,2020-06-08T19:46:30+02:00
; #@! TF.GenerationSoftware,Kicad,Pcbnew,(5.1.5)-3
FMAT,2
INCH,TZ
T1C0.0300
T2C0.0315
T3C0.0354
T4C0.0390
T5C0.0512
%
G90
G05
T1
X37000Y-30500
X37000Y-31500
X37000Y-37500
X38000Y-30500
X38000Y-31500
X38000Y-37500
X39000Y-30500
X39000Y-31500
X39000Y-37500
X40000Y-30500
X40000Y-31500
X40000Y-37500
X41000Y-30500
X41000Y-31500
X41000Y-37500
X42000Y-30500
X42000Y-31500
X42000Y-37500
X43000Y-30500
X43000Y-31500
X43000Y-37500
X44000Y-30500
X44000Y-31500
X44000Y-37500
X45000Y-30500
X45000Y-31500
X45000Y-37500
X46000Y-30500
X46000Y-31500
X46000Y-37500
X47000Y-30500
X47000Y-31500
X47000Y-37500
X48000Y-30500
X48000Y-31500
X48000Y-37500
T2
X35000Y-32500
X35000Y-36500
T3
X40000Y-40250
X41000Y-40250
T4
X44228Y-40500
X46000Y-40500
T5
X43732Y-39520
X46492Y-39520
T1
G00X25313Y-31945
M15
G01X25313Y-32118
M16
G05
G00X25313Y-35882
M15
G01X25313Y-36055
M16
G05
G00X29356Y-31047
M15
G01X29144Y-31047
M16
G05
G00X29356Y-34000
M15
G01X29144Y-34000
M16
G05
G00X29356Y-36953
M15
G01X29144Y-36953
M16
G05
G00X30340Y-32031
M15
G01X30128Y-32031
M16
G05
G00X30340Y-35969
M15
G01X30128Y-35969
M16
G05
G00X31219Y-33914
M15
G01X31219Y-34086
M16
G05
T0
M30
