G04 #@! TF.GenerationSoftware,KiCad,Pcbnew,(5.1.5)-3*
G04 #@! TF.CreationDate,2020-06-22T20:27:24+02:00*
G04 #@! TF.ProjectId,C64 XUM1541,43363420-5855-44d3-9135-34312e6b6963,rev?*
G04 #@! TF.SameCoordinates,Original*
G04 #@! TF.FileFunction,Soldermask,Bot*
G04 #@! TF.FilePolarity,Negative*
%FSLAX46Y46*%
G04 Gerber Fmt 4.6, Leading zero omitted, Abs format (unit mm)*
G04 Created by KiCad (PCBNEW (5.1.5)-3) date 2020-06-22 20:27:24*
%MOMM*%
%LPD*%
G04 APERTURE LIST*
%ADD10C,1.924000*%
%ADD11O,2.400000X1.924000*%
%ADD12O,1.924000X2.400000*%
%ADD13C,2.200000*%
%ADD14R,2.200000X2.200000*%
%ADD15O,2.000000X2.000000*%
%ADD16C,2.000000*%
%ADD17C,2.500000*%
%ADD18C,2.150000*%
%ADD19O,2.100000X2.100000*%
%ADD20R,2.100000X2.100000*%
G04 APERTURE END LIST*
D10*
X109220000Y-80010000D03*
X119380000Y-80010000D03*
X106680000Y-80010000D03*
X111760000Y-80010000D03*
X114300000Y-80010000D03*
X104140000Y-80010000D03*
X116840000Y-80010000D03*
X101600000Y-80010000D03*
X99060000Y-80010000D03*
X96520000Y-80010000D03*
X93980000Y-80010000D03*
X121920000Y-80010000D03*
X121920000Y-77470000D03*
X121920000Y-95250000D03*
X119380000Y-95250000D03*
X116840000Y-95250000D03*
X114300000Y-95250000D03*
X111760000Y-95250000D03*
X109220000Y-95250000D03*
X106680000Y-95250000D03*
X104140000Y-95250000D03*
X101600000Y-95250000D03*
X99060000Y-95250000D03*
X96520000Y-95250000D03*
X93980000Y-95250000D03*
X93980000Y-77470000D03*
X96520000Y-77470000D03*
X99060000Y-77470000D03*
X101600000Y-77470000D03*
X104140000Y-77470000D03*
X106680000Y-77470000D03*
X109220000Y-77470000D03*
X111760000Y-77470000D03*
X114300000Y-77470000D03*
X116840000Y-77470000D03*
X119380000Y-77470000D03*
D11*
X76795000Y-81360000D03*
X76795000Y-91360000D03*
X74295000Y-78860000D03*
X74295000Y-93860000D03*
D12*
X64295000Y-81360000D03*
X64295000Y-91360000D03*
D11*
X74295000Y-86360000D03*
D12*
X79295000Y-86360000D03*
D13*
X104140000Y-102235000D03*
D14*
X101600000Y-102235000D03*
D15*
X88900000Y-92710000D03*
D16*
X88900000Y-82550000D03*
D17*
X118090000Y-100380000D03*
D18*
X116840000Y-102870000D03*
X112340000Y-102870000D03*
D17*
X111080000Y-100380000D03*
D19*
X83185000Y-69850000D03*
X83185000Y-72390000D03*
X80645000Y-69850000D03*
X80645000Y-72390000D03*
X78105000Y-69850000D03*
X78105000Y-72390000D03*
X75565000Y-69850000D03*
X75565000Y-72390000D03*
X73025000Y-69850000D03*
X73025000Y-72390000D03*
X70485000Y-69850000D03*
X70485000Y-72390000D03*
X67945000Y-69850000D03*
X67945000Y-72390000D03*
X65405000Y-69850000D03*
D20*
X65405000Y-72390000D03*
M02*
