G04 #@! TF.GenerationSoftware,KiCad,Pcbnew,(5.1.5)-3*
G04 #@! TF.CreationDate,2020-06-22T20:27:24+02:00*
G04 #@! TF.ProjectId,C64 XUM1541,43363420-5855-44d3-9135-34312e6b6963,rev?*
G04 #@! TF.SameCoordinates,Original*
G04 #@! TF.FileFunction,Legend,Top*
G04 #@! TF.FilePolarity,Positive*
%FSLAX46Y46*%
G04 Gerber Fmt 4.6, Leading zero omitted, Abs format (unit mm)*
G04 Created by KiCad (PCBNEW (5.1.5)-3) date 2020-06-22 20:27:24*
%MOMM*%
%LPD*%
G04 APERTURE LIST*
%ADD10C,0.150000*%
%ADD11C,0.300000*%
%ADD12C,0.120000*%
G04 APERTURE END LIST*
D10*
X94615000Y-83820000D02*
X95885000Y-85090000D01*
X94615000Y-85090000D02*
X95885000Y-83820000D01*
X113409642Y-71512380D02*
X113076309Y-71036190D01*
X112838214Y-71512380D02*
X112838214Y-70512380D01*
X113219166Y-70512380D01*
X113314404Y-70560000D01*
X113362023Y-70607619D01*
X113409642Y-70702857D01*
X113409642Y-70845714D01*
X113362023Y-70940952D01*
X113314404Y-70988571D01*
X113219166Y-71036190D01*
X112838214Y-71036190D01*
X114219166Y-71464761D02*
X114123928Y-71512380D01*
X113933452Y-71512380D01*
X113838214Y-71464761D01*
X113790595Y-71369523D01*
X113790595Y-70988571D01*
X113838214Y-70893333D01*
X113933452Y-70845714D01*
X114123928Y-70845714D01*
X114219166Y-70893333D01*
X114266785Y-70988571D01*
X114266785Y-71083809D01*
X113790595Y-71179047D01*
X114600119Y-70845714D02*
X114838214Y-71512380D01*
X115076309Y-70845714D01*
X115457261Y-71512380D02*
X115457261Y-70845714D01*
X115457261Y-70512380D02*
X115409642Y-70560000D01*
X115457261Y-70607619D01*
X115504880Y-70560000D01*
X115457261Y-70512380D01*
X115457261Y-70607619D01*
X115885833Y-71464761D02*
X115981071Y-71512380D01*
X116171547Y-71512380D01*
X116266785Y-71464761D01*
X116314404Y-71369523D01*
X116314404Y-71321904D01*
X116266785Y-71226666D01*
X116171547Y-71179047D01*
X116028690Y-71179047D01*
X115933452Y-71131428D01*
X115885833Y-71036190D01*
X115885833Y-70988571D01*
X115933452Y-70893333D01*
X116028690Y-70845714D01*
X116171547Y-70845714D01*
X116266785Y-70893333D01*
X116742976Y-71512380D02*
X116742976Y-70845714D01*
X116742976Y-70512380D02*
X116695357Y-70560000D01*
X116742976Y-70607619D01*
X116790595Y-70560000D01*
X116742976Y-70512380D01*
X116742976Y-70607619D01*
X117362023Y-71512380D02*
X117266785Y-71464761D01*
X117219166Y-71417142D01*
X117171547Y-71321904D01*
X117171547Y-71036190D01*
X117219166Y-70940952D01*
X117266785Y-70893333D01*
X117362023Y-70845714D01*
X117504880Y-70845714D01*
X117600119Y-70893333D01*
X117647738Y-70940952D01*
X117695357Y-71036190D01*
X117695357Y-71321904D01*
X117647738Y-71417142D01*
X117600119Y-71464761D01*
X117504880Y-71512380D01*
X117362023Y-71512380D01*
X118123928Y-70845714D02*
X118123928Y-71512380D01*
X118123928Y-70940952D02*
X118171547Y-70893333D01*
X118266785Y-70845714D01*
X118409642Y-70845714D01*
X118504880Y-70893333D01*
X118552500Y-70988571D01*
X118552500Y-71512380D01*
X120123928Y-70988571D02*
X120266785Y-71036190D01*
X120314404Y-71083809D01*
X120362023Y-71179047D01*
X120362023Y-71321904D01*
X120314404Y-71417142D01*
X120266785Y-71464761D01*
X120171547Y-71512380D01*
X119790595Y-71512380D01*
X119790595Y-70512380D01*
X120123928Y-70512380D01*
X120219166Y-70560000D01*
X120266785Y-70607619D01*
X120314404Y-70702857D01*
X120314404Y-70798095D01*
X120266785Y-70893333D01*
X120219166Y-70940952D01*
X120123928Y-70988571D01*
X119790595Y-70988571D01*
X111889166Y-72750714D02*
X111889166Y-73560238D01*
X111841547Y-73655476D01*
X111793928Y-73703095D01*
X111698690Y-73750714D01*
X111555833Y-73750714D01*
X111460595Y-73703095D01*
X111889166Y-73369761D02*
X111793928Y-73417380D01*
X111603452Y-73417380D01*
X111508214Y-73369761D01*
X111460595Y-73322142D01*
X111412976Y-73226904D01*
X111412976Y-72941190D01*
X111460595Y-72845952D01*
X111508214Y-72798333D01*
X111603452Y-72750714D01*
X111793928Y-72750714D01*
X111889166Y-72798333D01*
X112365357Y-73417380D02*
X112365357Y-72750714D01*
X112365357Y-72417380D02*
X112317738Y-72465000D01*
X112365357Y-72512619D01*
X112412976Y-72465000D01*
X112365357Y-72417380D01*
X112365357Y-72512619D01*
X112698690Y-72750714D02*
X113079642Y-72750714D01*
X112841547Y-72417380D02*
X112841547Y-73274523D01*
X112889166Y-73369761D01*
X112984404Y-73417380D01*
X113079642Y-73417380D01*
X113412976Y-73417380D02*
X113412976Y-72417380D01*
X113841547Y-73417380D02*
X113841547Y-72893571D01*
X113793928Y-72798333D01*
X113698690Y-72750714D01*
X113555833Y-72750714D01*
X113460595Y-72798333D01*
X113412976Y-72845952D01*
X114746309Y-72750714D02*
X114746309Y-73417380D01*
X114317738Y-72750714D02*
X114317738Y-73274523D01*
X114365357Y-73369761D01*
X114460595Y-73417380D01*
X114603452Y-73417380D01*
X114698690Y-73369761D01*
X114746309Y-73322142D01*
X115222500Y-73417380D02*
X115222500Y-72417380D01*
X115222500Y-72798333D02*
X115317738Y-72750714D01*
X115508214Y-72750714D01*
X115603452Y-72798333D01*
X115651071Y-72845952D01*
X115698690Y-72941190D01*
X115698690Y-73226904D01*
X115651071Y-73322142D01*
X115603452Y-73369761D01*
X115508214Y-73417380D01*
X115317738Y-73417380D01*
X115222500Y-73369761D01*
X116127261Y-73322142D02*
X116174880Y-73369761D01*
X116127261Y-73417380D01*
X116079642Y-73369761D01*
X116127261Y-73322142D01*
X116127261Y-73417380D01*
X117032023Y-73369761D02*
X116936785Y-73417380D01*
X116746309Y-73417380D01*
X116651071Y-73369761D01*
X116603452Y-73322142D01*
X116555833Y-73226904D01*
X116555833Y-72941190D01*
X116603452Y-72845952D01*
X116651071Y-72798333D01*
X116746309Y-72750714D01*
X116936785Y-72750714D01*
X117032023Y-72798333D01*
X117603452Y-73417380D02*
X117508214Y-73369761D01*
X117460595Y-73322142D01*
X117412976Y-73226904D01*
X117412976Y-72941190D01*
X117460595Y-72845952D01*
X117508214Y-72798333D01*
X117603452Y-72750714D01*
X117746309Y-72750714D01*
X117841547Y-72798333D01*
X117889166Y-72845952D01*
X117936785Y-72941190D01*
X117936785Y-73226904D01*
X117889166Y-73322142D01*
X117841547Y-73369761D01*
X117746309Y-73417380D01*
X117603452Y-73417380D01*
X118365357Y-73417380D02*
X118365357Y-72750714D01*
X118365357Y-72845952D02*
X118412976Y-72798333D01*
X118508214Y-72750714D01*
X118651071Y-72750714D01*
X118746309Y-72798333D01*
X118793928Y-72893571D01*
X118793928Y-73417380D01*
X118793928Y-72893571D02*
X118841547Y-72798333D01*
X118936785Y-72750714D01*
X119079642Y-72750714D01*
X119174880Y-72798333D01*
X119222500Y-72893571D01*
X119222500Y-73417380D01*
X120412976Y-72369761D02*
X119555833Y-73655476D01*
X120603452Y-72750714D02*
X120984404Y-72750714D01*
X120746309Y-72417380D02*
X120746309Y-73274523D01*
X120793928Y-73369761D01*
X120889166Y-73417380D01*
X120984404Y-73417380D01*
X121698690Y-73369761D02*
X121603452Y-73417380D01*
X121412976Y-73417380D01*
X121317738Y-73369761D01*
X121270119Y-73274523D01*
X121270119Y-72893571D01*
X121317738Y-72798333D01*
X121412976Y-72750714D01*
X121603452Y-72750714D01*
X121698690Y-72798333D01*
X121746309Y-72893571D01*
X121746309Y-72988809D01*
X121270119Y-73084047D01*
X122174880Y-73417380D02*
X122174880Y-72417380D01*
X122174880Y-72798333D02*
X122270119Y-72750714D01*
X122460595Y-72750714D01*
X122555833Y-72798333D01*
X122603452Y-72845952D01*
X122651071Y-72941190D01*
X122651071Y-73226904D01*
X122603452Y-73322142D01*
X122555833Y-73369761D01*
X122460595Y-73417380D01*
X122270119Y-73417380D01*
X122174880Y-73369761D01*
X123222500Y-73417380D02*
X123127261Y-73369761D01*
X123079642Y-73274523D01*
X123079642Y-72417380D01*
D11*
X110185714Y-69690714D02*
X110114285Y-69762142D01*
X109900000Y-69833571D01*
X109757142Y-69833571D01*
X109542857Y-69762142D01*
X109400000Y-69619285D01*
X109328571Y-69476428D01*
X109257142Y-69190714D01*
X109257142Y-68976428D01*
X109328571Y-68690714D01*
X109400000Y-68547857D01*
X109542857Y-68405000D01*
X109757142Y-68333571D01*
X109900000Y-68333571D01*
X110114285Y-68405000D01*
X110185714Y-68476428D01*
X111471428Y-68333571D02*
X111185714Y-68333571D01*
X111042857Y-68405000D01*
X110971428Y-68476428D01*
X110828571Y-68690714D01*
X110757142Y-68976428D01*
X110757142Y-69547857D01*
X110828571Y-69690714D01*
X110900000Y-69762142D01*
X111042857Y-69833571D01*
X111328571Y-69833571D01*
X111471428Y-69762142D01*
X111542857Y-69690714D01*
X111614285Y-69547857D01*
X111614285Y-69190714D01*
X111542857Y-69047857D01*
X111471428Y-68976428D01*
X111328571Y-68905000D01*
X111042857Y-68905000D01*
X110900000Y-68976428D01*
X110828571Y-69047857D01*
X110757142Y-69190714D01*
X112900000Y-68833571D02*
X112900000Y-69833571D01*
X112542857Y-68262142D02*
X112185714Y-69333571D01*
X113114285Y-69333571D01*
X114685714Y-68333571D02*
X115685714Y-69833571D01*
X115685714Y-68333571D02*
X114685714Y-69833571D01*
X116257142Y-68333571D02*
X116257142Y-69547857D01*
X116328571Y-69690714D01*
X116400000Y-69762142D01*
X116542857Y-69833571D01*
X116828571Y-69833571D01*
X116971428Y-69762142D01*
X117042857Y-69690714D01*
X117114285Y-69547857D01*
X117114285Y-68333571D01*
X117828571Y-69833571D02*
X117828571Y-68333571D01*
X118328571Y-69405000D01*
X118828571Y-68333571D01*
X118828571Y-69833571D01*
X120328571Y-69833571D02*
X119471428Y-69833571D01*
X119900000Y-69833571D02*
X119900000Y-68333571D01*
X119757142Y-68547857D01*
X119614285Y-68690714D01*
X119471428Y-68762142D01*
X121685714Y-68333571D02*
X120971428Y-68333571D01*
X120900000Y-69047857D01*
X120971428Y-68976428D01*
X121114285Y-68905000D01*
X121471428Y-68905000D01*
X121614285Y-68976428D01*
X121685714Y-69047857D01*
X121757142Y-69190714D01*
X121757142Y-69547857D01*
X121685714Y-69690714D01*
X121614285Y-69762142D01*
X121471428Y-69833571D01*
X121114285Y-69833571D01*
X120971428Y-69762142D01*
X120900000Y-69690714D01*
X123042857Y-68833571D02*
X123042857Y-69833571D01*
X122685714Y-68262142D02*
X122328571Y-69333571D01*
X123257142Y-69333571D01*
X124614285Y-69833571D02*
X123757142Y-69833571D01*
X124185714Y-69833571D02*
X124185714Y-68333571D01*
X124042857Y-68547857D01*
X123900000Y-68690714D01*
X123757142Y-68762142D01*
D10*
X91440000Y-76200000D02*
X91440000Y-96520000D01*
X125730000Y-76200000D02*
X91440000Y-76200000D01*
X91440000Y-96520000D02*
X125730000Y-96520000D01*
X127000000Y-82550000D02*
X127000000Y-90170000D01*
X125730000Y-82550000D02*
X127000000Y-82550000D01*
X125730000Y-76200000D02*
X125730000Y-82550000D01*
X125730000Y-90170000D02*
X125730000Y-96520000D01*
X127000000Y-90170000D02*
X125730000Y-90170000D01*
X92710000Y-85090000D02*
X93980000Y-85090000D01*
X92710000Y-83820000D02*
X92710000Y-85090000D01*
X93980000Y-83820000D02*
X92710000Y-83820000D01*
X93980000Y-85090000D02*
X93980000Y-83820000D01*
X95885000Y-83820000D02*
X94615000Y-83820000D01*
X95885000Y-85090000D02*
X95885000Y-83820000D01*
X94615000Y-85090000D02*
X95885000Y-85090000D01*
X94615000Y-83820000D02*
X94615000Y-85090000D01*
X74295000Y-78610000D02*
X77795000Y-81360000D01*
X77795000Y-81360000D02*
X79295000Y-86360000D01*
X79295000Y-86360000D02*
X77795000Y-91610000D01*
X77795000Y-91610000D02*
X74295000Y-94360000D01*
X63795000Y-78610000D02*
X74295000Y-78610000D01*
X74295000Y-94360000D02*
X63795000Y-94360000D01*
X61795000Y-75860000D02*
X63795000Y-75860000D01*
X63795000Y-75860000D02*
X63795000Y-96860000D01*
X63795000Y-96860000D02*
X61795000Y-96860000D01*
X61795000Y-86360000D02*
X61795000Y-96860000D01*
X61795000Y-86360000D02*
X61795000Y-75860000D01*
D12*
X100310000Y-100690000D02*
X100310000Y-103780000D01*
X105370000Y-102235000D02*
G75*
G03X105370000Y-102235000I-2500000J0D01*
G01*
X105860000Y-102234538D02*
G75*
G02X100310000Y-103779830I-2990000J-462D01*
G01*
X105860000Y-102235462D02*
G75*
G03X100310000Y-100690170I-2990000J462D01*
G01*
X88900000Y-91730000D02*
X88900000Y-90840000D01*
X88900000Y-83530000D02*
X88900000Y-84420000D01*
X90210000Y-90840000D02*
X90210000Y-84420000D01*
X87590000Y-90840000D02*
X90210000Y-90840000D01*
X87590000Y-84420000D02*
X87590000Y-90840000D01*
X90210000Y-84420000D02*
X87590000Y-84420000D01*
X116290000Y-101900000D02*
X112890000Y-101900000D01*
X117930000Y-101900000D02*
X117390000Y-101900000D01*
X110730000Y-99070000D02*
X110730000Y-98560000D01*
X111250000Y-98560000D02*
X110730000Y-98560000D01*
X111250000Y-99070000D02*
X111250000Y-98560000D01*
X111790000Y-101900000D02*
X111250000Y-101900000D01*
X118450000Y-99070000D02*
X118450000Y-98560000D01*
X117930000Y-99070000D02*
X117930000Y-98560000D01*
X111250000Y-101900000D02*
X111250000Y-101670000D01*
X118450000Y-105570000D02*
X118450000Y-101670000D01*
X118450000Y-98560000D02*
X117930000Y-98560000D01*
X110730000Y-105570000D02*
X110730000Y-101670000D01*
X118450000Y-105570000D02*
X110730000Y-105570000D01*
X117930000Y-101900000D02*
X117930000Y-101670000D01*
X64075000Y-73720000D02*
X64075000Y-72390000D01*
X65405000Y-73720000D02*
X64075000Y-73720000D01*
X64075000Y-71120000D02*
X64075000Y-68520000D01*
X66675000Y-71120000D02*
X64075000Y-71120000D01*
X66675000Y-73720000D02*
X66675000Y-71120000D01*
X64075000Y-68520000D02*
X84515000Y-68520000D01*
X66675000Y-73720000D02*
X84515000Y-73720000D01*
X84515000Y-73720000D02*
X84515000Y-68520000D01*
D10*
X107235714Y-85256666D02*
X107711904Y-85256666D01*
X107140476Y-85542380D02*
X107473809Y-84542380D01*
X107807142Y-85542380D01*
X108664285Y-85542380D02*
X108092857Y-85542380D01*
X108378571Y-85542380D02*
X108378571Y-84542380D01*
X108283333Y-84685238D01*
X108188095Y-84780476D01*
X108092857Y-84828095D01*
X101330952Y-87796666D02*
X101807142Y-87796666D01*
X101235714Y-88082380D02*
X101569047Y-87082380D01*
X101902380Y-88082380D01*
X102235714Y-88082380D02*
X102235714Y-87415714D01*
X102235714Y-87606190D02*
X102283333Y-87510952D01*
X102330952Y-87463333D01*
X102426190Y-87415714D01*
X102521428Y-87415714D01*
X103283333Y-88082380D02*
X103283333Y-87082380D01*
X103283333Y-88034761D02*
X103188095Y-88082380D01*
X102997619Y-88082380D01*
X102902380Y-88034761D01*
X102854761Y-87987142D01*
X102807142Y-87891904D01*
X102807142Y-87606190D01*
X102854761Y-87510952D01*
X102902380Y-87463333D01*
X102997619Y-87415714D01*
X103188095Y-87415714D01*
X103283333Y-87463333D01*
X104188095Y-87415714D02*
X104188095Y-88082380D01*
X103759523Y-87415714D02*
X103759523Y-87939523D01*
X103807142Y-88034761D01*
X103902380Y-88082380D01*
X104045238Y-88082380D01*
X104140476Y-88034761D01*
X104188095Y-87987142D01*
X104664285Y-88082380D02*
X104664285Y-87415714D01*
X104664285Y-87082380D02*
X104616666Y-87130000D01*
X104664285Y-87177619D01*
X104711904Y-87130000D01*
X104664285Y-87082380D01*
X104664285Y-87177619D01*
X105140476Y-87415714D02*
X105140476Y-88082380D01*
X105140476Y-87510952D02*
X105188095Y-87463333D01*
X105283333Y-87415714D01*
X105426190Y-87415714D01*
X105521428Y-87463333D01*
X105569047Y-87558571D01*
X105569047Y-88082380D01*
X106188095Y-88082380D02*
X106092857Y-88034761D01*
X106045238Y-87987142D01*
X105997619Y-87891904D01*
X105997619Y-87606190D01*
X106045238Y-87510952D01*
X106092857Y-87463333D01*
X106188095Y-87415714D01*
X106330952Y-87415714D01*
X106426190Y-87463333D01*
X106473809Y-87510952D01*
X106521428Y-87606190D01*
X106521428Y-87891904D01*
X106473809Y-87987142D01*
X106426190Y-88034761D01*
X106330952Y-88082380D01*
X106188095Y-88082380D01*
X106711904Y-88177619D02*
X107473809Y-88177619D01*
X107711904Y-88082380D02*
X107711904Y-87082380D01*
X108092857Y-87082380D01*
X108188095Y-87130000D01*
X108235714Y-87177619D01*
X108283333Y-87272857D01*
X108283333Y-87415714D01*
X108235714Y-87510952D01*
X108188095Y-87558571D01*
X108092857Y-87606190D01*
X107711904Y-87606190D01*
X108711904Y-88082380D02*
X108711904Y-87415714D01*
X108711904Y-87606190D02*
X108759523Y-87510952D01*
X108807142Y-87463333D01*
X108902380Y-87415714D01*
X108997619Y-87415714D01*
X109473809Y-88082380D02*
X109378571Y-88034761D01*
X109330952Y-87987142D01*
X109283333Y-87891904D01*
X109283333Y-87606190D01*
X109330952Y-87510952D01*
X109378571Y-87463333D01*
X109473809Y-87415714D01*
X109616666Y-87415714D01*
X109711904Y-87463333D01*
X109759523Y-87510952D01*
X109807142Y-87606190D01*
X109807142Y-87891904D01*
X109759523Y-87987142D01*
X109711904Y-88034761D01*
X109616666Y-88082380D01*
X109473809Y-88082380D01*
X109997619Y-88177619D02*
X110759523Y-88177619D01*
X110997619Y-88082380D02*
X110997619Y-87082380D01*
X111330952Y-87796666D01*
X111664285Y-87082380D01*
X111664285Y-88082380D01*
X112140476Y-88082380D02*
X112140476Y-87415714D01*
X112140476Y-87082380D02*
X112092857Y-87130000D01*
X112140476Y-87177619D01*
X112188095Y-87130000D01*
X112140476Y-87082380D01*
X112140476Y-87177619D01*
X113045238Y-88034761D02*
X112950000Y-88082380D01*
X112759523Y-88082380D01*
X112664285Y-88034761D01*
X112616666Y-87987142D01*
X112569047Y-87891904D01*
X112569047Y-87606190D01*
X112616666Y-87510952D01*
X112664285Y-87463333D01*
X112759523Y-87415714D01*
X112950000Y-87415714D01*
X113045238Y-87463333D01*
X113473809Y-88082380D02*
X113473809Y-87415714D01*
X113473809Y-87606190D02*
X113521428Y-87510952D01*
X113569047Y-87463333D01*
X113664285Y-87415714D01*
X113759523Y-87415714D01*
X114235714Y-88082380D02*
X114140476Y-88034761D01*
X114092857Y-87987142D01*
X114045238Y-87891904D01*
X114045238Y-87606190D01*
X114092857Y-87510952D01*
X114140476Y-87463333D01*
X114235714Y-87415714D01*
X114378571Y-87415714D01*
X114473809Y-87463333D01*
X114521428Y-87510952D01*
X114569047Y-87606190D01*
X114569047Y-87891904D01*
X114521428Y-87987142D01*
X114473809Y-88034761D01*
X114378571Y-88082380D01*
X114235714Y-88082380D01*
X94702380Y-86502857D02*
X94702380Y-86979047D01*
X95178571Y-87026666D01*
X95130952Y-86979047D01*
X95083333Y-86883809D01*
X95083333Y-86645714D01*
X95130952Y-86550476D01*
X95178571Y-86502857D01*
X95273809Y-86455238D01*
X95511904Y-86455238D01*
X95607142Y-86502857D01*
X95654761Y-86550476D01*
X95702380Y-86645714D01*
X95702380Y-86883809D01*
X95654761Y-86979047D01*
X95607142Y-87026666D01*
X95035714Y-86121904D02*
X95702380Y-85883809D01*
X95035714Y-85645714D01*
X92797380Y-88423571D02*
X92797380Y-87804523D01*
X93178333Y-88137857D01*
X93178333Y-87995000D01*
X93225952Y-87899761D01*
X93273571Y-87852142D01*
X93368809Y-87804523D01*
X93606904Y-87804523D01*
X93702142Y-87852142D01*
X93749761Y-87899761D01*
X93797380Y-87995000D01*
X93797380Y-88280714D01*
X93749761Y-88375952D01*
X93702142Y-88423571D01*
X93702142Y-87375952D02*
X93749761Y-87328333D01*
X93797380Y-87375952D01*
X93749761Y-87423571D01*
X93702142Y-87375952D01*
X93797380Y-87375952D01*
X92797380Y-86995000D02*
X92797380Y-86375952D01*
X93178333Y-86709285D01*
X93178333Y-86566428D01*
X93225952Y-86471190D01*
X93273571Y-86423571D01*
X93368809Y-86375952D01*
X93606904Y-86375952D01*
X93702142Y-86423571D01*
X93749761Y-86471190D01*
X93797380Y-86566428D01*
X93797380Y-86852142D01*
X93749761Y-86947380D01*
X93702142Y-86995000D01*
X93130714Y-86042619D02*
X93797380Y-85804523D01*
X93130714Y-85566428D01*
X65071666Y-94702380D02*
X65071666Y-95416666D01*
X65024047Y-95559523D01*
X64928809Y-95654761D01*
X64785952Y-95702380D01*
X64690714Y-95702380D01*
X66071666Y-95702380D02*
X65500238Y-95702380D01*
X65785952Y-95702380D02*
X65785952Y-94702380D01*
X65690714Y-94845238D01*
X65595476Y-94940476D01*
X65500238Y-94988095D01*
X67582023Y-95607142D02*
X67534404Y-95654761D01*
X67391547Y-95702380D01*
X67296309Y-95702380D01*
X67153452Y-95654761D01*
X67058214Y-95559523D01*
X67010595Y-95464285D01*
X66962976Y-95273809D01*
X66962976Y-95130952D01*
X67010595Y-94940476D01*
X67058214Y-94845238D01*
X67153452Y-94750000D01*
X67296309Y-94702380D01*
X67391547Y-94702380D01*
X67534404Y-94750000D01*
X67582023Y-94797619D01*
X68439166Y-94702380D02*
X68248690Y-94702380D01*
X68153452Y-94750000D01*
X68105833Y-94797619D01*
X68010595Y-94940476D01*
X67962976Y-95130952D01*
X67962976Y-95511904D01*
X68010595Y-95607142D01*
X68058214Y-95654761D01*
X68153452Y-95702380D01*
X68343928Y-95702380D01*
X68439166Y-95654761D01*
X68486785Y-95607142D01*
X68534404Y-95511904D01*
X68534404Y-95273809D01*
X68486785Y-95178571D01*
X68439166Y-95130952D01*
X68343928Y-95083333D01*
X68153452Y-95083333D01*
X68058214Y-95130952D01*
X68010595Y-95178571D01*
X67962976Y-95273809D01*
X69391547Y-95035714D02*
X69391547Y-95702380D01*
X69153452Y-94654761D02*
X68915357Y-95369047D01*
X69534404Y-95369047D01*
X69677261Y-95797619D02*
X70439166Y-95797619D01*
X70677261Y-95702380D02*
X70677261Y-94702380D01*
X71153452Y-95178571D02*
X71486785Y-95178571D01*
X71629642Y-95702380D02*
X71153452Y-95702380D01*
X71153452Y-94702380D01*
X71629642Y-94702380D01*
X72629642Y-95607142D02*
X72582023Y-95654761D01*
X72439166Y-95702380D01*
X72343928Y-95702380D01*
X72201071Y-95654761D01*
X72105833Y-95559523D01*
X72058214Y-95464285D01*
X72010595Y-95273809D01*
X72010595Y-95130952D01*
X72058214Y-94940476D01*
X72105833Y-94845238D01*
X72201071Y-94750000D01*
X72343928Y-94702380D01*
X72439166Y-94702380D01*
X72582023Y-94750000D01*
X72629642Y-94797619D01*
X102131904Y-98727380D02*
X102131904Y-97727380D01*
X102370000Y-97727380D01*
X102512857Y-97775000D01*
X102608095Y-97870238D01*
X102655714Y-97965476D01*
X102703333Y-98155952D01*
X102703333Y-98298809D01*
X102655714Y-98489285D01*
X102608095Y-98584523D01*
X102512857Y-98679761D01*
X102370000Y-98727380D01*
X102131904Y-98727380D01*
X103655714Y-98727380D02*
X103084285Y-98727380D01*
X103370000Y-98727380D02*
X103370000Y-97727380D01*
X103274761Y-97870238D01*
X103179523Y-97965476D01*
X103084285Y-98013095D01*
X98877380Y-104544523D02*
X97877380Y-104544523D01*
X97877380Y-104163571D01*
X97925000Y-104068333D01*
X97972619Y-104020714D01*
X98067857Y-103973095D01*
X98210714Y-103973095D01*
X98305952Y-104020714D01*
X98353571Y-104068333D01*
X98401190Y-104163571D01*
X98401190Y-104544523D01*
X97877380Y-103354047D02*
X97877380Y-103163571D01*
X97925000Y-103068333D01*
X98020238Y-102973095D01*
X98210714Y-102925476D01*
X98544047Y-102925476D01*
X98734523Y-102973095D01*
X98829761Y-103068333D01*
X98877380Y-103163571D01*
X98877380Y-103354047D01*
X98829761Y-103449285D01*
X98734523Y-103544523D01*
X98544047Y-103592142D01*
X98210714Y-103592142D01*
X98020238Y-103544523D01*
X97925000Y-103449285D01*
X97877380Y-103354047D01*
X97877380Y-102592142D02*
X98877380Y-102354047D01*
X98163095Y-102163571D01*
X98877380Y-101973095D01*
X97877380Y-101735000D01*
X98353571Y-101354047D02*
X98353571Y-101020714D01*
X98877380Y-100877857D02*
X98877380Y-101354047D01*
X97877380Y-101354047D01*
X97877380Y-100877857D01*
X98877380Y-99877857D02*
X98401190Y-100211190D01*
X98877380Y-100449285D02*
X97877380Y-100449285D01*
X97877380Y-100068333D01*
X97925000Y-99973095D01*
X97972619Y-99925476D01*
X98067857Y-99877857D01*
X98210714Y-99877857D01*
X98305952Y-99925476D01*
X98353571Y-99973095D01*
X98401190Y-100068333D01*
X98401190Y-100449285D01*
X89352380Y-86086665D02*
X88876190Y-86419999D01*
X89352380Y-86658094D02*
X88352380Y-86658094D01*
X88352380Y-86277141D01*
X88400000Y-86181903D01*
X88447619Y-86134284D01*
X88542857Y-86086665D01*
X88685714Y-86086665D01*
X88780952Y-86134284D01*
X88828571Y-86181903D01*
X88876190Y-86277141D01*
X88876190Y-86658094D01*
X89352380Y-85134284D02*
X89352380Y-85705713D01*
X89352380Y-85419999D02*
X88352380Y-85419999D01*
X88495238Y-85515237D01*
X88590476Y-85610475D01*
X88638095Y-85705713D01*
X88352380Y-90185714D02*
X88352380Y-89566666D01*
X88733333Y-89900000D01*
X88733333Y-89757142D01*
X88780952Y-89661904D01*
X88828571Y-89614285D01*
X88923809Y-89566666D01*
X89161904Y-89566666D01*
X89257142Y-89614285D01*
X89304761Y-89661904D01*
X89352380Y-89757142D01*
X89352380Y-90042857D01*
X89304761Y-90138095D01*
X89257142Y-90185714D01*
X88352380Y-89233333D02*
X88352380Y-88614285D01*
X88733333Y-88947619D01*
X88733333Y-88804761D01*
X88780952Y-88709523D01*
X88828571Y-88661904D01*
X88923809Y-88614285D01*
X89161904Y-88614285D01*
X89257142Y-88661904D01*
X89304761Y-88709523D01*
X89352380Y-88804761D01*
X89352380Y-89090476D01*
X89304761Y-89185714D01*
X89257142Y-89233333D01*
X88352380Y-87995238D02*
X88352380Y-87900000D01*
X88400000Y-87804761D01*
X88447619Y-87757142D01*
X88542857Y-87709523D01*
X88733333Y-87661904D01*
X88971428Y-87661904D01*
X89161904Y-87709523D01*
X89257142Y-87757142D01*
X89304761Y-87804761D01*
X89352380Y-87900000D01*
X89352380Y-87995238D01*
X89304761Y-88090476D01*
X89257142Y-88138095D01*
X89161904Y-88185714D01*
X88971428Y-88233333D01*
X88733333Y-88233333D01*
X88542857Y-88185714D01*
X88447619Y-88138095D01*
X88400000Y-88090476D01*
X88352380Y-87995238D01*
X113256666Y-101594761D02*
X113399523Y-101642380D01*
X113637619Y-101642380D01*
X113732857Y-101594761D01*
X113780476Y-101547142D01*
X113828095Y-101451904D01*
X113828095Y-101356666D01*
X113780476Y-101261428D01*
X113732857Y-101213809D01*
X113637619Y-101166190D01*
X113447142Y-101118571D01*
X113351904Y-101070952D01*
X113304285Y-101023333D01*
X113256666Y-100928095D01*
X113256666Y-100832857D01*
X113304285Y-100737619D01*
X113351904Y-100690000D01*
X113447142Y-100642380D01*
X113685238Y-100642380D01*
X113828095Y-100690000D01*
X114161428Y-100642380D02*
X114399523Y-101642380D01*
X114590000Y-100928095D01*
X114780476Y-101642380D01*
X115018571Y-100642380D01*
X115923333Y-101642380D02*
X115351904Y-101642380D01*
X115637619Y-101642380D02*
X115637619Y-100642380D01*
X115542380Y-100785238D01*
X115447142Y-100880476D01*
X115351904Y-100928095D01*
X109037380Y-103687380D02*
X108561190Y-104020714D01*
X109037380Y-104258809D02*
X108037380Y-104258809D01*
X108037380Y-103877857D01*
X108085000Y-103782619D01*
X108132619Y-103735000D01*
X108227857Y-103687380D01*
X108370714Y-103687380D01*
X108465952Y-103735000D01*
X108513571Y-103782619D01*
X108561190Y-103877857D01*
X108561190Y-104258809D01*
X108513571Y-103258809D02*
X108513571Y-102925476D01*
X109037380Y-102782619D02*
X109037380Y-103258809D01*
X108037380Y-103258809D01*
X108037380Y-102782619D01*
X108989761Y-102401666D02*
X109037380Y-102258809D01*
X109037380Y-102020714D01*
X108989761Y-101925476D01*
X108942142Y-101877857D01*
X108846904Y-101830238D01*
X108751666Y-101830238D01*
X108656428Y-101877857D01*
X108608809Y-101925476D01*
X108561190Y-102020714D01*
X108513571Y-102211190D01*
X108465952Y-102306428D01*
X108418333Y-102354047D01*
X108323095Y-102401666D01*
X108227857Y-102401666D01*
X108132619Y-102354047D01*
X108085000Y-102306428D01*
X108037380Y-102211190D01*
X108037380Y-101973095D01*
X108085000Y-101830238D01*
X108513571Y-101401666D02*
X108513571Y-101068333D01*
X109037380Y-100925476D02*
X109037380Y-101401666D01*
X108037380Y-101401666D01*
X108037380Y-100925476D01*
X108037380Y-100639761D02*
X108037380Y-100068333D01*
X109037380Y-100354047D02*
X108037380Y-100354047D01*
X65071666Y-74382380D02*
X65071666Y-75096666D01*
X65024047Y-75239523D01*
X64928809Y-75334761D01*
X64785952Y-75382380D01*
X64690714Y-75382380D01*
X65500238Y-74477619D02*
X65547857Y-74430000D01*
X65643095Y-74382380D01*
X65881190Y-74382380D01*
X65976428Y-74430000D01*
X66024047Y-74477619D01*
X66071666Y-74572857D01*
X66071666Y-74668095D01*
X66024047Y-74810952D01*
X65452619Y-75382380D01*
X66071666Y-75382380D01*
X67010595Y-75382380D02*
X67010595Y-74382380D01*
X67391547Y-74382380D01*
X67486785Y-74430000D01*
X67534404Y-74477619D01*
X67582023Y-74572857D01*
X67582023Y-74715714D01*
X67534404Y-74810952D01*
X67486785Y-74858571D01*
X67391547Y-74906190D01*
X67010595Y-74906190D01*
X67962976Y-75096666D02*
X68439166Y-75096666D01*
X67867738Y-75382380D02*
X68201071Y-74382380D01*
X68534404Y-75382380D01*
X69439166Y-75382380D02*
X69105833Y-74906190D01*
X68867738Y-75382380D02*
X68867738Y-74382380D01*
X69248690Y-74382380D01*
X69343928Y-74430000D01*
X69391547Y-74477619D01*
X69439166Y-74572857D01*
X69439166Y-74715714D01*
X69391547Y-74810952D01*
X69343928Y-74858571D01*
X69248690Y-74906190D01*
X68867738Y-74906190D01*
X69820119Y-75096666D02*
X70296309Y-75096666D01*
X69724880Y-75382380D02*
X70058214Y-74382380D01*
X70391547Y-75382380D01*
X71201071Y-75382380D02*
X70724880Y-75382380D01*
X70724880Y-74382380D01*
X72010595Y-75382380D02*
X71534404Y-75382380D01*
X71534404Y-74382380D01*
X72343928Y-74858571D02*
X72677261Y-74858571D01*
X72820119Y-75382380D02*
X72343928Y-75382380D01*
X72343928Y-74382380D01*
X72820119Y-74382380D01*
X73724880Y-75382380D02*
X73248690Y-75382380D01*
X73248690Y-74382380D01*
M02*
